<svg width="275" height="36" viewBox="0 0 275 36" fill="none" xmlns="http://www.w3.org/2000/svg"><path d="M0 35.02h7.003l6.568-24.513H6.568zM9.38 0 7.502 7.005h7.003L16.38 0H9.377zm28.01 0-6.568 24.514h7.003L44.393 0zm-9.38 35.02h7.003l1.875-7.004h-7.003zm-14.007 0h7.003l4.221-15.757h-7.003zM23.386 0l-4.221 15.758h7.003L30.388 0zm69.366 13.157c-1.895 0-3.356.889-4.565 2.086l1.741-6.502h-3.647l-4.693 17.52h3.647l.45-1.678c.587 1.032 1.549 1.92 3.493 1.92 3.045 0 6.483-2.352 7.635-6.647l.013-.049c1.152-4.294-1.074-6.647-4.074-6.647zm.427 6.647-.012.049c-.578 2.16-2.39 3.55-4.094 3.55-1.706 0-2.74-1.415-2.169-3.55l.013-.049c.571-2.135 2.367-3.55 4.07-3.55 1.702 0 2.763 1.415 2.192 3.55m14.375-6.647c-4.007 0-7.786 3-8.775 6.696l-.012.048c-.989 3.696 1.17 6.648 5.152 6.648s7.784-3 8.775-6.696l.013-.049c.988-3.695-1.171-6.647-5.153-6.647m1.539 6.693-.012.048c-.508 1.896-2.186 3.506-4.273 3.506s-2.939-1.655-2.431-3.551l.012-.049c.508-1.896 2.187-3.505 4.273-3.505s2.939 1.654 2.431 3.55m160.58-1.367c-1.264-.481-2.395-.817-2.205-1.537l.012-.048c.133-.505.693-.89 1.582-.89.934 0 2.086.457 3.157 1.201l2.065-2.519c-1.14-.935-2.77-1.488-4.4-1.488-2.591 0-5.095 1.464-5.796 4.08l-.012.048c-.669 2.496 1.146 3.336 2.803 3.866 1.3.432 2.476.695 2.264 1.488l-.012.048c-.154.575-.737.959-1.793.959-1.2 0-2.522-.53-3.643-1.537l-2.205 2.399c1.343 1.343 3.199 1.945 4.998 1.945 2.782 0 5.265-1.295 6.03-4.153l.012-.048c.629-2.354-1.225-3.215-2.863-3.817zm-144.705-5.087-1.923 7.177c-.463 1.727-1.588 2.616-2.978 2.616s-1.969-.89-1.506-2.616l1.923-7.177h-3.647l-2.231 8.329c-.793 2.952.326 4.776 3.087 4.776 1.847 0 3.19-.983 4.318-2.063l-.487 1.824h3.647l3.447-12.863h-3.647zm-47.416-.24c-1.848 0-3.19.983-4.318 2.063l.49-1.823h-3.647L66.63 26.258h3.647l1.923-7.177c.462-1.727 1.587-2.617 2.978-2.617s1.969.89 1.506 2.617l-1.923 7.177h3.647l2.231-8.33c.79-2.952-.326-4.775-3.087-4.775zm154.982-4.418h-3.837l-.868 3.239h3.837zm-168.804.72-4.5 16.8h3.696l4.499-16.8zm141.829-.72-4.693 17.52h3.647l4.692-17.52zm36.416 4.419c-1.848 0-3.191.982-4.318 2.062l.486-1.823h-3.646l-3.448 12.863h3.647l1.923-7.177c.463-1.727 1.588-2.617 2.979-2.617s1.968.89 1.506 2.617l-1.923 7.177h3.646l2.232-8.33c.792-2.952-.327-4.775-3.088-4.775zm-14.43.239-3.447 12.863h3.646l3.448-12.863zM221.8 8.738l-1.697 6.336c-.586-1.031-1.548-1.92-3.492-1.92-3.045 0-6.483 2.353-7.635 6.647l-.012.049c-1.149 4.295 1.073 6.648 4.073 6.648 1.896 0 3.356-.89 4.566-2.087l-.496 1.848h3.646l4.693-17.521zm-2.915 11.066-.012.049c-.572 2.135-2.368 3.55-4.07 3.55s-2.764-1.415-2.193-3.55l.012-.049c.578-2.16 2.392-3.55 4.095-3.55s2.739 1.415 2.168 3.55m-24.112-6.647c-4.007 0-7.787 3-8.775 6.696l-.012.048c-.989 3.696 1.17 6.648 5.152 6.648s7.783-3 8.775-6.696l.012-.049c.989-3.695-1.17-6.647-5.152-6.647m1.539 6.693-.012.048c-.508 1.896-2.186 3.506-4.273 3.506s-2.939-1.655-2.431-3.551l.012-.049c.508-1.896 2.186-3.505 4.273-3.505s2.939 1.654 2.431 3.55m-40.695-4.776c-.586-1.031-1.548-1.92-3.492-1.92-3.045 0-6.483 2.353-7.635 6.647l-.012.049c-1.152 4.295 1.073 6.648 4.073 6.648 1.896 0 3.356-.89 4.566-2.087l-.496 1.848h3.647l4.693-17.521h-3.647zm-1.218 4.73-.012.049c-.572 2.135-2.368 3.55-4.07 3.55s-2.764-1.415-2.193-3.55l.013-.049c.577-2.16 2.391-3.55 4.094-3.55 1.702 0 2.739 1.415 2.168 3.55m104.213-6.408-.451 1.678c-.692-1.08-1.645-1.92-3.635-1.92-2.951 0-6.286 2.159-7.317 6l-.012.049c-1.022 3.817 1.103 6 4.103 6 1.944 0 3.332-.792 4.756-2.087l-.166.623c-.617 2.305-2.114 3.506-4.608 3.506-1.703 0-2.906-.433-4.028-1.177l-1.981 2.737c1.4.865 3.239 1.343 5.325 1.343 2.495 0 4.485-.53 6.006-1.727 1.369-1.08 2.37-2.758 2.987-5.063l2.667-9.96h-3.646zm-1.497 5.758-.012.049c-.469 1.75-2.165 2.976-3.94 2.976s-2.797-1.201-2.323-2.976l.012-.049c.469-1.751 2.141-2.976 3.916-2.976s2.815 1.225 2.344 2.976zm-74.994-9.696-1.781 6.647h-6.813l1.782-6.647h-3.696l-4.499 16.8h3.695l1.805-6.744h6.813l-1.808 6.745h3.695l4.499-16.801h-3.695zm-42.781 3.699c-1.847 0-3.19.982-4.318 2.062l.49-1.823h-3.647l-3.447 12.863h3.647l1.923-7.177c.463-1.727 1.588-2.617 2.979-2.617s1.968.89 1.505 2.617l-1.923 7.177h3.647l2.232-8.33c.792-2.952-.327-4.775-3.088-4.775z" fill="#BC002D"/></svg>
