<svg width="31" height="28" viewBox="0 0 31 28" fill="none" xmlns="http://www.w3.org/2000/svg">
<path d="M15.5 19.5556V26.5M21.1 16.7778V26.5M26.7 11.2222V26.5M29.5 1.5L17.3956 13.5083C17.3306 13.573 17.2533 13.6243 17.1683 13.6593C17.0832 13.6943 16.9921 13.7124 16.9 13.7124C16.8079 13.7124 16.7168 13.6943 16.6317 13.6593C16.5467 13.6243 16.4694 13.573 16.4044 13.5083L11.7956 8.93611C11.6643 8.80592 11.4863 8.73279 11.3007 8.73279C11.1151 8.73279 10.9371 8.80592 10.8058 8.93611L1.5 18.1667M4.3 22.3333V26.5M9.9 16.7778V26.5" stroke="white" stroke-width="2" stroke-linecap="round" stroke-linejoin="round"/>
</svg>
