<svg width="140" height="80" viewBox="0 0 140 80" fill="none" xmlns="http://www.w3.org/2000/svg">
<rect width="140" height="80" rx="4" fill="black" fill-opacity="0.6"/>
<path d="M49.4697 15.4697C49.1768 15.7626 49.1768 16.2374 49.4697 16.5303L54.2426 21.3033C54.5355 21.5962 55.0104 21.5962 55.3033 21.3033C55.5962 21.0104 55.5962 20.5355 55.3033 20.2426L51.0607 16L55.3033 11.7574C55.5962 11.4645 55.5962 10.9896 55.3033 10.6967C55.0104 10.4038 54.5355 10.4038 54.2426 10.6967L49.4697 15.4697ZM90.5303 16.5303C90.8232 16.2374 90.8232 15.7626 90.5303 15.4697L85.7574 10.6967C85.4645 10.4038 84.9896 10.4038 84.6967 10.6967C84.4038 10.9896 84.4038 11.4645 84.6967 11.7574L88.9393 16L84.6967 20.2426C84.4038 20.5355 84.4038 21.0104 84.6967 21.3033C84.9896 21.5962 85.4645 21.5962 85.7574 21.3033L90.5303 16.5303ZM50 16V16.75H90V16V15.25H50V16Z" fill="white"/>
<path d="M77.5138 42.4062L77.1241 39.6335M77.1241 39.6335C77.0207 38.8981 76.631 38.2337 76.0407 37.7864C75.4503 37.3391 74.7077 37.1456 73.9762 37.2484C73.2447 37.3512 72.5842 37.7419 72.14 38.3346C71.6958 38.9273 71.3095 38.287 71.4129 39.0224M77.1241 39.6335C77.0207 38.8981 77.4071 39.5384 77.8512 38.9457C78.2954 38.353 78.9559 37.9623 79.6874 37.8595C80.419 37.7567 81.1616 37.9502 81.7519 38.3975C82.3423 38.8448 82.732 39.5092 82.8353 40.2446L83.6147 45.7901C84.0281 48.7316 83.2622 51.716 81.4855 54.0868C79.7087 56.4575 77.0667 58.0204 74.1407 58.4316L71.3825 58.8193C67.521 59.362 65.009 58.4992 62.6658 56.7361L56.9996 52.4429C56.4508 51.9813 56.0994 51.3256 56.0181 50.6114C55.9368 49.8973 56.1317 49.1794 56.5627 48.6066C56.9936 48.0337 57.6275 47.6496 58.333 47.5339C59.0386 47.4181 59.7618 47.5796 60.353 47.9849L63.1231 50.0838M71.4129 39.0224L71.8025 41.7951M71.4129 39.0224C71.3095 38.287 70.9198 37.6226 70.3295 37.1753C69.7391 36.728 68.9965 36.5345 68.265 36.6373C67.5335 36.7401 66.873 37.1308 66.4288 37.7235C65.9846 38.3162 65.7931 39.0623 65.8965 39.7977L66.2862 42.5704M66.2862 42.5704L66.3836 43.2636M66.2862 42.5704C66.1828 41.835 63.6498 25.9205 63.0595 25.4732C62.4692 25.0259 61.7265 24.8324 60.995 24.9352C60.2635 25.038 59.603 25.4287 59.1588 26.0214C58.7146 26.6141 58.5232 27.3602 58.6265 28.0956L61.5492 48.8912" stroke="white" stroke-width="1.8" stroke-linecap="round" stroke-linejoin="round"/>
<path d="M33 67.31C32.9667 67.35 32.9233 67.4167 32.87 67.51C32.8233 67.5967 32.7833 67.6767 32.75 67.75C32.6233 68.0767 32.4567 68.44 32.25 68.84C32.0433 69.2333 31.8133 69.6233 31.56 70.01C31.3067 70.3967 31.04 70.7467 30.76 71.06C30.3933 71.4733 29.99 71.8767 29.55 72.27C29.11 72.6567 28.6467 73.02 28.16 73.36C27.6733 73.6933 27.1667 73.98 26.64 74.22L26 73.55C26.54 73.3367 27.0567 73.0733 27.55 72.76C28.05 72.44 28.5167 72.0933 28.95 71.72C29.39 71.34 29.78 70.96 30.12 70.58C30.3467 70.32 30.57 70.03 30.79 69.71C31.0167 69.3833 31.2167 69.0533 31.39 68.72C31.57 68.38 31.7 68.0733 31.78 67.8C31.7267 67.8 31.6 67.8 31.4 67.8C31.2 67.8 30.9633 67.8 30.69 67.8C30.4167 67.8 30.13 67.8 29.83 67.8C29.53 67.8 29.2433 67.8 28.97 67.8C28.6967 67.8 28.46 67.8 28.26 67.8C28.0667 67.8 27.94 67.8 27.88 67.8C27.7667 67.8 27.6367 67.8033 27.49 67.81C27.35 67.8167 27.22 67.8233 27.1 67.83C26.9867 67.8367 26.91 67.8433 26.87 67.85V66.94C26.9167 66.9467 27 66.9567 27.12 66.97C27.2467 66.9767 27.38 66.9833 27.52 66.99C27.66 66.9967 27.78 67 27.88 67C27.9533 67 28.0867 67 28.28 67C28.4733 67 28.7033 67 28.97 67C29.2433 67 29.5267 67 29.82 67C30.1133 67 30.3933 67 30.66 67C30.9333 67 31.1667 67 31.36 67C31.5533 67 31.68 67 31.74 67C31.9067 67 32.0533 66.9933 32.18 66.98C32.3133 66.9667 32.4167 66.9467 32.49 66.92L33 67.31ZM30.89 70.53C31.1633 70.7567 31.4433 71.0067 31.73 71.28C32.0233 71.5533 32.31 71.8367 32.59 72.13C32.87 72.4167 33.13 72.6933 33.37 72.96C33.61 73.22 33.8167 73.4567 33.99 73.67L33.29 74.27C33.0567 73.95 32.7767 73.6067 32.45 73.24C32.1233 72.8667 31.7767 72.4967 31.41 72.13C31.05 71.7567 30.6867 71.4133 30.32 71.1L30.89 70.53ZM43.72 67.75C43.6733 67.8167 43.63 67.9033 43.59 68.01C43.55 68.11 43.5167 68.2 43.49 68.28C43.4033 68.6133 43.2767 68.98 43.11 69.38C42.9433 69.7733 42.7433 70.1733 42.51 70.58C42.2767 70.98 42.01 71.36 41.71 71.72C41.2567 72.2733 40.7133 72.78 40.08 73.24C39.4533 73.6933 38.67 74.0933 37.73 74.44L37.01 73.79C37.6233 73.61 38.1733 73.3933 38.66 73.14C39.1467 72.88 39.5833 72.5933 39.97 72.28C40.3567 71.9667 40.7 71.6333 41 71.28C41.26 70.9733 41.4967 70.6367 41.71 70.27C41.93 69.9033 42.1167 69.5367 42.27 69.17C42.4233 68.7967 42.5333 68.46 42.6 68.16H38.89L39.21 67.44C39.29 67.44 39.44 67.44 39.66 67.44C39.88 67.44 40.13 67.44 40.41 67.44C40.6967 67.44 40.98 67.44 41.26 67.44C41.54 67.44 41.7833 67.44 41.99 67.44C42.2033 67.44 42.34 67.44 42.4 67.44C42.5333 67.44 42.6567 67.4333 42.77 67.42C42.8833 67.4 42.9767 67.3733 43.05 67.34L43.72 67.75ZM40.37 66.23C40.2833 66.3633 40.2 66.5067 40.12 66.66C40.04 66.8067 39.9767 66.9267 39.93 67.02C39.73 67.3867 39.48 67.7833 39.18 68.21C38.88 68.63 38.5233 69.0467 38.11 69.46C37.6967 69.8733 37.22 70.26 36.68 70.62L35.99 70.1C36.4233 69.8467 36.81 69.57 37.15 69.27C37.49 68.97 37.7867 68.6667 38.04 68.36C38.3 68.0533 38.52 67.76 38.7 67.48C38.88 67.2 39.0233 66.9467 39.13 66.72C39.1833 66.6333 39.24 66.5133 39.3 66.36C39.3667 66.2 39.4133 66.0567 39.44 65.93L40.37 66.23ZM46.46 67.15C46.66 67.1567 46.83 67.1633 46.97 67.17C47.11 67.17 47.2367 67.17 47.35 67.17C47.43 67.17 47.5767 67.17 47.79 67.17C48.0033 67.17 48.26 67.17 48.56 67.17C48.8667 67.17 49.1933 67.17 49.54 67.17C49.8867 67.17 50.23 67.17 50.57 67.17C50.9167 67.17 51.24 67.17 51.54 67.17C51.84 67.17 52.0933 67.17 52.3 67.17C52.5067 67.17 52.6467 67.17 52.72 67.17C52.8267 67.17 52.96 67.17 53.12 67.17C53.2867 67.1633 53.4467 67.1567 53.6 67.15C53.5933 67.27 53.5867 67.4 53.58 67.54C53.58 67.6733 53.58 67.8033 53.58 67.93C53.58 67.9967 53.58 68.13 53.58 68.33C53.58 68.5233 53.58 68.76 53.58 69.04C53.58 69.32 53.58 69.6233 53.58 69.95C53.58 70.27 53.58 70.59 53.58 70.91C53.58 71.23 53.58 71.5267 53.58 71.8C53.58 72.0733 53.58 72.3067 53.58 72.5C53.58 72.6867 53.58 72.8067 53.58 72.86C53.58 72.9333 53.58 73.0333 53.58 73.16C53.58 73.2867 53.58 73.4133 53.58 73.54C53.5867 73.6667 53.59 73.78 53.59 73.88C53.5967 73.9733 53.6 74.0367 53.6 74.07H52.74C52.74 74.03 52.74 73.95 52.74 73.83C52.7467 73.7033 52.75 73.5633 52.75 73.41C52.7567 73.25 52.76 73.1 52.76 72.96C52.76 72.9133 52.76 72.7867 52.76 72.58C52.76 72.3733 52.76 72.12 52.76 71.82C52.76 71.5133 52.76 71.1867 52.76 70.84C52.76 70.4867 52.76 70.1433 52.76 69.81C52.76 69.47 52.76 69.16 52.76 68.88C52.76 68.6 52.76 68.3767 52.76 68.21C52.76 68.0433 52.76 67.96 52.76 67.96H47.29C47.29 67.96 47.29 68.0433 47.29 68.21C47.29 68.37 47.29 68.59 47.29 68.87C47.29 69.15 47.29 69.46 47.29 69.8C47.29 70.1333 47.29 70.4733 47.29 70.82C47.29 71.1667 47.29 71.4933 47.29 71.8C47.29 72.1 47.29 72.3533 47.29 72.56C47.29 72.7667 47.29 72.9 47.29 72.96C47.29 73.0467 47.29 73.1467 47.29 73.26C47.29 73.3733 47.29 73.4867 47.29 73.6C47.2967 73.7067 47.3 73.8033 47.3 73.89C47.3067 73.9767 47.31 74.0367 47.31 74.07H46.45C46.45 74.0367 46.45 73.9733 46.45 73.88C46.4567 73.78 46.46 73.6667 46.46 73.54C46.4667 73.4133 46.47 73.29 46.47 73.17C46.47 73.0433 46.47 72.9367 46.47 72.85C46.47 72.7967 46.47 72.6733 46.47 72.48C46.47 72.2867 46.47 72.05 46.47 71.77C46.47 71.49 46.47 71.19 46.47 70.87C46.47 70.5433 46.47 70.22 46.47 69.9C46.47 69.5733 46.47 69.2733 46.47 69C46.47 68.72 46.47 68.4867 46.47 68.3C46.47 68.1067 46.47 67.9833 46.47 67.93C46.47 67.81 46.47 67.68 46.47 67.54C46.47 67.4 46.4667 67.27 46.46 67.15ZM53.08 72.71V73.49H46.9V72.71H53.08ZM56.02 69.67C56.12 69.6767 56.2433 69.6867 56.39 69.7C56.5367 69.7067 56.6967 69.7133 56.87 69.72C57.05 69.72 57.23 69.72 57.41 69.72C57.5167 69.72 57.68 69.72 57.9 69.72C58.1267 69.72 58.39 69.72 58.69 69.72C58.99 69.72 59.3067 69.72 59.64 69.72C59.98 69.72 60.3167 69.72 60.65 69.72C60.99 69.72 61.31 69.72 61.61 69.72C61.9167 69.72 62.18 69.72 62.4 69.72C62.62 69.72 62.7833 69.72 62.89 69.72C63.1433 69.72 63.36 69.7133 63.54 69.7C63.72 69.6867 63.8633 69.6767 63.97 69.67V70.65C63.87 70.6433 63.72 70.6333 63.52 70.62C63.3267 70.6067 63.12 70.6 62.9 70.6C62.7933 70.6 62.6267 70.6 62.4 70.6C62.1733 70.6 61.91 70.6 61.61 70.6C61.3167 70.6 61 70.6 60.66 70.6C60.32 70.6 59.98 70.6 59.64 70.6C59.3067 70.6 58.99 70.6 58.69 70.6C58.3967 70.6 58.1367 70.6 57.91 70.6C57.6833 70.6 57.5167 70.6 57.41 70.6C57.1367 70.6 56.8767 70.6067 56.63 70.62C56.3833 70.6267 56.18 70.6367 56.02 70.65V69.67ZM70.24 73.79C70.26 73.71 70.2733 73.6233 70.28 73.53C70.2933 73.43 70.3 73.33 70.3 73.23C70.3 73.1633 70.3 73.0167 70.3 72.79C70.3 72.5633 70.3 72.2867 70.3 71.96C70.3 71.6267 70.3 71.2667 70.3 70.88C70.3 70.4933 70.3 70.1067 70.3 69.72C70.3 69.3267 70.3 68.96 70.3 68.62C70.3 68.28 70.3 67.9867 70.3 67.74C70.3 67.4933 70.3 67.3267 70.3 67.24C70.3 67.0467 70.2933 66.8867 70.28 66.76C70.2667 66.6267 70.2567 66.54 70.25 66.5H71.17C71.17 66.54 71.1633 66.6267 71.15 66.76C71.1367 66.8933 71.13 67.0533 71.13 67.24C71.13 67.3333 71.13 67.5 71.13 67.74C71.13 67.9733 71.13 68.26 71.13 68.6C71.13 68.9333 71.13 69.2933 71.13 69.68C71.13 70.06 71.13 70.4367 71.13 70.81C71.13 71.1833 71.13 71.53 71.13 71.85C71.13 72.1633 71.13 72.4233 71.13 72.63C71.13 72.8367 71.13 72.9633 71.13 73.01C71.4433 72.8633 71.7767 72.67 72.13 72.43C72.4833 72.19 72.8267 71.91 73.16 71.59C73.5 71.27 73.7967 70.9233 74.05 70.55L74.52 71.23C74.2333 71.6167 73.8967 71.9867 73.51 72.34C73.13 72.6933 72.7333 73.01 72.32 73.29C71.9067 73.57 71.5033 73.8067 71.11 74C71.03 74.0467 70.96 74.09 70.9 74.13C70.8467 74.17 70.8033 74.2033 70.77 74.23L70.24 73.79ZM65.66 73.74C66.08 73.44 66.4367 73.0767 66.73 72.65C67.0233 72.2233 67.2467 71.7667 67.4 71.28C67.4733 71.0533 67.53 70.77 67.57 70.43C67.61 70.09 67.64 69.73 67.66 69.35C67.68 68.9633 67.69 68.59 67.69 68.23C67.6967 67.8633 67.7 67.54 67.7 67.26C67.7 67.1133 67.6933 66.9833 67.68 66.87C67.6667 66.75 67.65 66.6367 67.63 66.53H68.55C68.5433 66.57 68.5367 66.63 68.53 66.71C68.5233 66.7833 68.5167 66.8667 68.51 66.96C68.5033 67.0533 68.5 67.15 68.5 67.25C68.5 67.53 68.4967 67.86 68.49 68.24C68.4833 68.6133 68.4667 69.0067 68.44 69.42C68.42 69.8267 68.39 70.2133 68.35 70.58C68.3167 70.9467 68.2633 71.2533 68.19 71.5C68.0433 72.0333 67.8133 72.5367 67.5 73.01C67.1933 73.4833 66.83 73.8967 66.41 74.25L65.66 73.74ZM75.79 67.42C75.9767 67.4133 76.1467 67.4067 76.3 67.4C76.46 67.3867 76.5867 67.3767 76.68 67.37C76.84 67.35 77.07 67.3267 77.37 67.3C77.6767 67.2667 78.0267 67.2333 78.42 67.2C78.8133 67.16 79.2367 67.12 79.69 67.08C80.1433 67.04 80.6 67 81.06 66.96C81.4267 66.9267 81.7733 66.9 82.1 66.88C82.4267 66.8533 82.73 66.8333 83.01 66.82C83.29 66.8 83.54 66.7867 83.76 66.78V67.58C83.5733 67.58 83.36 67.5833 83.12 67.59C82.88 67.5967 82.6433 67.61 82.41 67.63C82.1767 67.65 81.9733 67.6867 81.8 67.74C81.4467 67.8533 81.1267 68.0267 80.84 68.26C80.56 68.4867 80.32 68.75 80.12 69.05C79.92 69.35 79.7667 69.66 79.66 69.98C79.56 70.3 79.51 70.61 79.51 70.91C79.51 71.2967 79.5767 71.6367 79.71 71.93C79.8433 72.2167 80.0233 72.46 80.25 72.66C80.4833 72.86 80.7467 73.0233 81.04 73.15C81.3333 73.2767 81.6433 73.3733 81.97 73.44C82.3033 73.5 82.6333 73.5333 82.96 73.54L82.67 74.37C82.2967 74.3567 81.9233 74.3033 81.55 74.21C81.1767 74.1233 80.82 73.9967 80.48 73.83C80.14 73.6567 79.8367 73.44 79.57 73.18C79.3033 72.92 79.0933 72.6167 78.94 72.27C78.7867 71.9233 78.71 71.5267 78.71 71.08C78.71 70.56 78.8 70.08 78.98 69.64C79.1667 69.1933 79.4033 68.8033 79.69 68.47C79.9767 68.1367 80.2733 67.88 80.58 67.7C80.3667 67.7267 80.1 67.7567 79.78 67.79C79.4667 67.8233 79.13 67.86 78.77 67.9C78.41 67.9333 78.0467 67.9733 77.68 68.02C77.32 68.0667 76.9833 68.1133 76.67 68.16C76.3567 68.2 76.0933 68.2433 75.88 68.29L75.79 67.42ZM82.32 68.81C82.3933 68.9167 82.48 69.0533 82.58 69.22C82.6867 69.38 82.79 69.5467 82.89 69.72C82.99 69.8867 83.0733 70.0467 83.14 70.2L82.63 70.44C82.5167 70.1933 82.39 69.95 82.25 69.71C82.11 69.4633 81.9633 69.2367 81.81 69.03L82.32 68.81ZM83.41 68.39C83.49 68.4967 83.5833 68.63 83.69 68.79C83.7967 68.95 83.9 69.1167 84 69.29C84.1067 69.4567 84.2 69.6167 84.28 69.77L83.76 70.02C83.64 69.7733 83.5067 69.53 83.36 69.29C83.22 69.05 83.0733 68.8267 82.92 68.62L83.41 68.39ZM86.79 67.15C87.49 67.23 88.1567 67.2767 88.79 67.29C89.43 67.3033 90.0067 67.2867 90.52 67.24C90.9267 67.2 91.33 67.14 91.73 67.06C92.1367 66.9733 92.52 66.8733 92.88 66.76L92.99 67.48C92.6633 67.5733 92.2967 67.66 91.89 67.74C91.49 67.82 91.09 67.88 90.69 67.92C90.1833 67.9667 89.5933 67.99 88.92 67.99C88.2533 67.9833 87.56 67.9467 86.84 67.88L86.79 67.15ZM86.6 69.2C87.1667 69.26 87.7267 69.3 88.28 69.32C88.8333 69.3333 89.3567 69.33 89.85 69.31C90.3433 69.29 90.7833 69.2567 91.17 69.21C91.65 69.1567 92.0867 69.0867 92.48 69C92.8733 68.9133 93.2033 68.8267 93.47 68.74L93.59 69.49C93.3167 69.5633 92.9967 69.6367 92.63 69.71C92.2633 69.7767 91.87 69.8367 91.45 69.89C91.0367 69.9367 90.5667 69.9733 90.04 70C89.5133 70.02 88.9567 70.0267 88.37 70.02C87.79 70.0067 87.2133 69.9833 86.64 69.95L86.6 69.2ZM90.02 67.02C89.98 66.8667 89.9333 66.7167 89.88 66.57C89.8333 66.4167 89.7867 66.27 89.74 66.13L90.59 66.02C90.6233 66.3 90.6767 66.5933 90.75 66.9C90.8233 67.2 90.9033 67.4967 90.99 67.79C91.0767 68.0767 91.16 68.3367 91.24 68.57C91.3333 68.83 91.4433 69.1067 91.57 69.4C91.6967 69.6933 91.8367 69.9833 91.99 70.27C92.1433 70.5567 92.3067 70.83 92.48 71.09C92.5333 71.1633 92.59 71.2367 92.65 71.31C92.7167 71.3767 92.7833 71.4467 92.85 71.52L92.44 72.13C92.2533 72.0767 92.0333 72.0333 91.78 72C91.5267 71.96 91.2667 71.9267 91 71.9C90.7333 71.8667 90.4833 71.8367 90.25 71.81L90.32 71.2C90.5867 71.2267 90.8633 71.2567 91.15 71.29C91.4367 71.3233 91.66 71.35 91.82 71.37C91.54 70.9367 91.2933 70.49 91.08 70.03C90.8733 69.57 90.6967 69.1367 90.55 68.73C90.47 68.5033 90.3967 68.2933 90.33 68.1C90.27 67.9 90.2133 67.71 90.16 67.53C90.1133 67.35 90.0667 67.18 90.02 67.02ZM88.05 71.35C87.93 71.5233 87.83 71.7 87.75 71.88C87.67 72.06 87.63 72.26 87.63 72.48C87.63 72.8933 87.8167 73.2033 88.19 73.41C88.57 73.6167 89.1533 73.72 89.94 73.72C90.4067 73.72 90.83 73.7033 91.21 73.67C91.59 73.6367 91.96 73.5833 92.32 73.51L92.29 74.31C91.9433 74.3633 91.5733 74.4033 91.18 74.43C90.7867 74.4633 90.3767 74.48 89.95 74.48C89.2967 74.48 88.74 74.4133 88.28 74.28C87.8267 74.1467 87.48 73.9433 87.24 73.67C87.0067 73.3967 86.8867 73.0467 86.88 72.62C86.8733 72.3333 86.9067 72.08 86.98 71.86C87.06 71.6333 87.1567 71.41 87.27 71.19L88.05 71.35ZM100.73 66.06C100.717 66.1467 100.703 66.2433 100.69 66.35C100.683 66.4567 100.677 66.5833 100.67 66.73C100.67 66.83 100.667 66.98 100.66 67.18C100.66 67.38 100.66 67.6067 100.66 67.86C100.66 68.1067 100.66 68.3567 100.66 68.61C100.66 68.8633 100.66 69.0967 100.66 69.31C100.66 69.6433 100.667 69.9933 100.68 70.36C100.693 70.7267 100.71 71.0833 100.73 71.43C100.75 71.7767 100.767 72.0933 100.78 72.38C100.793 72.6667 100.8 72.8933 100.8 73.06C100.8 73.2933 100.743 73.5167 100.63 73.73C100.523 73.9433 100.34 74.1167 100.08 74.25C99.8267 74.39 99.48 74.46 99.04 74.46C98.32 74.46 97.77 74.3333 97.39 74.08C97.01 73.8333 96.82 73.47 96.82 72.99C96.82 72.6833 96.91 72.4167 97.09 72.19C97.2767 71.9633 97.5433 71.7867 97.89 71.66C98.2367 71.5267 98.65 71.46 99.13 71.46C99.6567 71.46 100.15 71.5233 100.61 71.65C101.077 71.77 101.503 71.9233 101.89 72.11C102.277 72.2967 102.62 72.4933 102.92 72.7C103.22 72.9 103.467 73.08 103.66 73.24L103.2 73.95C102.973 73.7367 102.71 73.5233 102.41 73.31C102.117 73.0967 101.793 72.9 101.44 72.72C101.093 72.54 100.717 72.3967 100.31 72.29C99.91 72.1767 99.4833 72.12 99.03 72.12C98.55 72.12 98.1833 72.2 97.93 72.36C97.6833 72.52 97.56 72.7167 97.56 72.95C97.56 73.0967 97.6067 73.2333 97.7 73.36C97.7933 73.48 97.9433 73.5767 98.15 73.65C98.3567 73.7233 98.6233 73.76 98.95 73.76C99.1433 73.76 99.32 73.7367 99.48 73.69C99.64 73.6367 99.7667 73.5467 99.86 73.42C99.96 73.2933 100.01 73.1167 100.01 72.89C100.01 72.6967 100.003 72.4467 99.99 72.14C99.9833 71.8267 99.9733 71.4967 99.96 71.15C99.9467 70.7967 99.9333 70.4567 99.92 70.13C99.9133 69.8033 99.91 69.53 99.91 69.31C99.91 69.0833 99.91 68.8533 99.91 68.62C99.91 68.38 99.91 68.1433 99.91 67.91C99.91 67.6767 99.91 67.4533 99.91 67.24C99.9167 67.0267 99.92 66.8333 99.92 66.66C99.92 66.58 99.9167 66.4767 99.91 66.35C99.9033 66.2233 99.8933 66.1267 99.88 66.06H100.73ZM96.9 67.15C97.0667 67.1767 97.26 67.2033 97.48 67.23C97.7 67.2567 97.93 67.2833 98.17 67.31C98.4167 67.33 98.65 67.3467 98.87 67.36C99.0967 67.3667 99.2933 67.37 99.46 67.37C100.093 67.37 100.74 67.3467 101.4 67.3C102.067 67.2533 102.723 67.1767 103.37 67.07L103.36 67.8C102.993 67.84 102.593 67.88 102.16 67.92C101.727 67.96 101.28 67.9933 100.82 68.02C100.367 68.0467 99.9167 68.06 99.47 68.06C99.2367 68.06 98.96 68.05 98.64 68.03C98.32 68.01 98.0033 67.9867 97.69 67.96C97.3833 67.9333 97.1233 67.91 96.91 67.89L96.9 67.15ZM96.85 69.27C97.03 69.2967 97.23 69.3233 97.45 69.35C97.67 69.3767 97.8967 69.3967 98.13 69.41C98.3633 69.4233 98.5867 69.4367 98.8 69.45C99.0133 69.4567 99.2033 69.46 99.37 69.46C99.8567 69.46 100.327 69.45 100.78 69.43C101.24 69.4033 101.69 69.37 102.13 69.33C102.577 69.2833 103.017 69.2267 103.45 69.16L103.44 69.91C103.107 69.9567 102.773 69.9967 102.44 70.03C102.113 70.0567 101.783 70.08 101.45 70.1C101.123 70.12 100.787 70.1367 100.44 70.15C100.1 70.1567 99.74 70.16 99.36 70.16C99.1333 70.16 98.87 70.1533 98.57 70.14C98.2767 70.1267 97.9767 70.11 97.67 70.09C97.37 70.07 97.1 70.0467 96.86 70.02L96.85 69.27ZM111.27 66.08C111.27 66.1133 111.263 66.1733 111.25 66.26C111.243 66.3467 111.237 66.4333 111.23 66.52C111.23 66.6 111.227 66.6633 111.22 66.71C111.213 66.8367 111.21 67.01 111.21 67.23C111.21 67.45 111.21 67.69 111.21 67.95C111.21 68.21 111.21 68.4733 111.21 68.74C111.217 69.0067 111.22 69.2567 111.22 69.49C111.227 69.7233 111.23 69.92 111.23 70.08L110.46 69.7C110.46 69.6067 110.46 69.4667 110.46 69.28C110.46 69.0867 110.46 68.8667 110.46 68.62C110.46 68.3667 110.457 68.1167 110.45 67.87C110.45 67.6233 110.447 67.3967 110.44 67.19C110.433 66.9833 110.427 66.8233 110.42 66.71C110.413 66.5767 110.403 66.45 110.39 66.33C110.377 66.2033 110.367 66.12 110.36 66.08H111.27ZM105.96 67.47C106.233 67.47 106.543 67.4667 106.89 67.46C107.237 67.4467 107.603 67.4333 107.99 67.42C108.383 67.4067 108.78 67.3967 109.18 67.39C109.58 67.3833 109.963 67.3767 110.33 67.37C110.703 67.3633 111.047 67.36 111.36 67.36C111.66 67.36 111.96 67.36 112.26 67.36C112.56 67.36 112.84 67.36 113.1 67.36C113.367 67.36 113.6 67.3633 113.8 67.37C114.007 67.37 114.17 67.37 114.29 67.37L114.28 68.11C114 68.0967 113.623 68.0867 113.15 68.08C112.683 68.0667 112.083 68.06 111.35 68.06C110.917 68.06 110.463 68.0667 109.99 68.08C109.523 68.0867 109.053 68.0967 108.58 68.11C108.107 68.1233 107.647 68.1433 107.2 68.17C106.76 68.19 106.353 68.2133 105.98 68.24L105.96 67.47ZM111.21 70.38C111.21 70.82 111.143 71.19 111.01 71.49C110.883 71.79 110.703 72.0133 110.47 72.16C110.243 72.3067 109.977 72.38 109.67 72.38C109.463 72.38 109.26 72.3467 109.06 72.28C108.867 72.2067 108.69 72.1 108.53 71.96C108.377 71.8133 108.253 71.6367 108.16 71.43C108.073 71.2167 108.03 70.9767 108.03 70.71C108.03 70.3767 108.11 70.08 108.27 69.82C108.43 69.56 108.643 69.3533 108.91 69.2C109.183 69.0467 109.477 68.97 109.79 68.97C110.183 68.97 110.507 69.06 110.76 69.24C111.02 69.4133 111.217 69.6533 111.35 69.96C111.483 70.26 111.55 70.6033 111.55 70.99C111.55 71.3233 111.5 71.6633 111.4 72.01C111.307 72.3567 111.147 72.69 110.92 73.01C110.7 73.33 110.397 73.6233 110.01 73.89C109.63 74.15 109.147 74.3667 108.56 74.54L107.89 73.88C108.343 73.7733 108.75 73.6367 109.11 73.47C109.47 73.3033 109.773 73.1 110.02 72.86C110.267 72.62 110.453 72.34 110.58 72.02C110.713 71.7 110.78 71.3333 110.78 70.92C110.78 70.4667 110.683 70.14 110.49 69.94C110.297 69.74 110.063 69.64 109.79 69.64C109.617 69.64 109.453 69.6833 109.3 69.77C109.147 69.85 109.02 69.97 108.92 70.13C108.827 70.29 108.78 70.48 108.78 70.7C108.78 71.0133 108.88 71.2567 109.08 71.43C109.287 71.6033 109.527 71.69 109.8 71.69C110.007 71.69 110.183 71.6333 110.33 71.52C110.477 71.4 110.58 71.2233 110.64 70.99C110.707 70.75 110.713 70.4533 110.66 70.1L111.21 70.38Z" fill="white"/>
</svg>
